<svg width="24" height="30" viewBox="0 0 24 30" fill="none" xmlns="http://www.w3.org/2000/svg">
<path fill-rule="evenodd" clip-rule="evenodd" d="M11.8501 30C11.8501 30 23.1001 19.3388 23.1001 11.25C23.1001 8.26631 21.9148 5.40483 19.805 3.29505C17.6953 1.18526 14.8338 0 11.8501 0C8.86641 0 6.00493 1.18526 3.89515 3.29505C1.78536 5.40483 0.600098 8.26631 0.600098 11.25C0.600098 19.3388 11.8501 30 11.8501 30ZM11.8501 16.875C13.3419 16.875 14.7727 16.2824 15.8276 15.2275C16.8825 14.1726 17.4751 12.7418 17.4751 11.25C17.4751 9.75816 16.8825 8.32742 15.8276 7.27252C14.7727 6.21763 13.3419 5.625 11.8501 5.625C10.3583 5.625 8.92751 6.21763 7.87262 7.27252C6.81773 8.32742 6.2251 9.75816 6.2251 11.25C6.2251 12.7418 6.81773 14.1726 7.87262 15.2275C8.92751 16.2824 10.3583 16.875 11.8501 16.875Z" fill="#6398FF"/>
</svg>
