<svg width="24" height="23" viewBox="0 0 24 23" fill="none" xmlns="http://www.w3.org/2000/svg">
<path d="M16.091 0H7.90914C3.54825 0 0 3.55083 0 7.91742V10.0801C0 13.4837 2.16264 16.4975 5.38348 17.5801L5.69985 17.6866L5.53357 17.9758C5.10268 18.7175 4.51902 19.8822 3.74988 21.5348C3.65723 21.734 3.69813 21.9712 3.85356 22.1266C4.00632 22.2794 4.24907 22.323 4.44275 22.2357L13.7102 17.9948H16.0909C20.4517 17.9948 24 14.444 24 10.0803V7.91768C24 3.55129 20.4518 0.000258237 16.0909 0.000258237L16.091 0ZM5.81789 10.671C4.99586 10.671 4.32719 10.0023 4.32719 9.18011C4.32719 8.35807 4.99586 7.6894 5.81789 7.6894C6.63993 7.6894 7.3086 8.35807 7.3086 9.18011C7.3086 10.0023 6.63993 10.671 5.81789 10.671ZM12.0001 10.671C11.178 10.671 10.5094 10.0023 10.5094 9.18011C10.5094 8.35807 11.178 7.6894 12.0001 7.6894C12.8221 7.6894 13.4908 8.35807 13.4908 9.18011C13.4908 10.0023 12.8221 10.671 12.0001 10.671ZM18.1823 10.671C17.3602 10.671 16.6915 10.0023 16.6915 9.18011C16.6915 8.35807 17.3602 7.6894 18.1823 7.6894C19.0043 7.6894 19.673 8.35807 19.673 9.18011C19.6732 10.0023 19.0044 10.671 18.1823 10.671Z" fill="white"/>
</svg>
