<svg width="24" height="25" viewBox="0 0 24 25" fill="none" xmlns="http://www.w3.org/2000/svg">
<g opacity="0.5" clip-path="url(#clip0_158_4260)">
<path d="M21.474 11.867H24.0003C24.0003 5.3871 19.1081 0.5 12.6194 0.5V3.02628C17.7503 3.02628 21.474 6.74371 21.474 11.867Z" fill="#151515"/>
<path d="M12.6318 8.07871C15.2882 8.07871 16.4212 9.21175 16.4212 11.8681H18.9475C18.9475 7.7945 16.7054 5.55243 12.6318 5.55243V8.07871ZM16.9543 14.954C16.7115 14.7334 16.3926 14.6157 16.0648 14.6259C15.7369 14.636 15.4259 14.7731 15.1972 15.0083L12.1745 18.1169C11.447 17.978 9.98423 17.522 8.47857 16.0201C6.9729 14.5132 6.51691 13.0467 6.38175 12.3241L9.48782 9.30017C9.72328 9.0717 9.86062 8.76058 9.87075 8.43265C9.88089 8.10472 9.76304 7.78571 9.54213 7.54314L4.87482 2.41099C4.65383 2.16766 4.34668 2.02005 4.01861 1.99954C3.69053 1.97902 3.36739 2.0872 3.11779 2.3011L0.376773 4.65181C0.158389 4.87098 0.0280437 5.16269 0.0104613 5.47159C-0.00848584 5.78737 -0.369744 13.2677 5.43061 19.0706C10.4908 24.1295 16.8292 24.4996 18.5749 24.4996C18.83 24.4996 18.9866 24.492 19.0283 24.4895C19.3372 24.4722 19.6287 24.3412 19.8468 24.1219L22.1963 21.3796C22.4104 21.1302 22.5187 20.8071 22.4985 20.479C22.4782 20.151 22.3308 19.8437 22.0877 19.6226L16.9543 14.954Z" fill="#151515"/>
</g>
<defs>
<clipPath id="clip0_158_4260">
<rect width="24" height="24" fill="grey" transform="translate(0 0.5)"/>
</clipPath>
</defs>
</svg>
