<svg width="17" height="25" viewBox="0 0 17 25" fill="none" xmlns="http://www.w3.org/2000/svg">
<path d="M0 18.6547V21.1163V21.1161C0.000618129 22.0136 0.357475 22.874 0.992097 23.5086C1.62672 24.1432 2.48713 24.5 3.3846 24.5007H13.2307H13.2305C14.128 24.5 14.9884 24.1432 15.623 23.5086C16.2575 22.8739 16.6144 22.0135 16.6151 21.1161V18.6547C16.6132 17.1049 15.9965 15.6189 14.9006 14.523C13.8047 13.4271 12.319 12.8107 10.7691 12.8086H5.84604C4.29621 12.8107 2.81046 13.4271 1.71456 14.523C0.618661 15.6189 0.00195637 17.1049 0.000110263 18.6547L0 18.6547Z" fill="#151515"/>
<path d="M14.1526 6.34583C14.1526 9.57445 11.5353 12.1922 8.30676 12.1922C5.07824 12.1922 2.46094 9.57466 2.46094 6.34583C2.46094 3.1172 5.07824 0.5 8.30676 0.5C11.5353 0.5 14.1526 3.1173 14.1526 6.34583Z" fill="#151515"/>
</svg>
