<svg width="50" height="50" viewBox="0 0 50 50" fill="none" xmlns="http://www.w3.org/2000/svg">
<path d="M25 4.51807C31.6265 4.51807 32.5301 4.51807 35.241 4.51807C37.6506 4.51807 38.8554 5.12048 39.759 5.42169C40.9639 6.0241 41.8675 6.3253 42.7711 7.22892C43.6747 8.13253 44.2771 9.03615 44.5783 10.241C44.8795 11.1446 45.1807 12.3494 45.4819 14.759C45.4819 17.4699 45.4819 18.0723 45.4819 25C45.4819 31.9277 45.4819 32.5301 45.4819 35.241C45.4819 37.6506 44.8795 38.8554 44.5783 39.759C43.9759 40.9639 43.6747 41.8675 42.7711 42.7711C41.8675 43.6747 40.9639 44.2771 39.759 44.5783C38.8554 44.8795 37.6506 45.1807 35.241 45.4819C32.5301 45.4819 31.9277 45.4819 25 45.4819C18.0723 45.4819 17.4699 45.4819 14.759 45.4819C12.3494 45.4819 11.1446 44.8795 10.241 44.5783C9.03615 43.9759 8.13253 43.6747 7.22892 42.7711C6.3253 41.8675 5.72289 40.9639 5.42169 39.759C5.12048 38.8554 4.81928 37.6506 4.51807 35.241C4.51807 32.5301 4.51807 31.9277 4.51807 25C4.51807 18.0723 4.51807 17.4699 4.51807 14.759C4.51807 12.3494 5.12048 11.1446 5.42169 10.241C6.0241 9.03615 6.3253 8.13253 7.22892 7.22892C8.13253 6.3253 9.03615 5.72289 10.241 5.42169C11.1446 5.12048 12.3494 4.81928 14.759 4.51807C17.4699 4.51807 18.3735 4.51807 25 4.51807ZM25 0C18.0723 0 17.4699 0 14.759 0C12.0482 0 10.241 0.602411 8.73494 1.20482C7.22892 1.80723 5.72289 2.71085 4.21687 4.21687C2.71085 5.72289 2.10844 6.92771 1.20482 8.73494C0.602411 10.241 0.301205 12.0482 0 14.759C0 17.4699 0 18.3735 0 25C0 31.9277 0 32.5301 0 35.241C0 37.9518 0.602411 39.759 1.20482 41.2651C1.80723 42.7711 2.71085 44.2771 4.21687 45.7831C5.72289 47.2892 6.92771 47.8916 8.73494 48.7952C10.241 49.3976 12.0482 49.6988 14.759 50C17.4699 50 18.3735 50 25 50C31.6265 50 32.5301 50 35.241 50C37.9518 50 39.759 49.3976 41.2651 48.7952C42.7711 48.1928 44.2771 47.2892 45.7831 45.7831C47.2892 44.2771 47.8916 43.0723 48.7952 41.2651C49.3976 39.759 49.6988 37.9518 50 35.241C50 32.5301 50 31.6265 50 25C50 18.3735 50 17.4699 50 14.759C50 12.0482 49.3976 10.241 48.7952 8.73494C48.1928 7.22892 47.2892 5.72289 45.7831 4.21687C44.2771 2.71085 43.0723 2.10844 41.2651 1.20482C39.759 0.602411 37.9518 0.301205 35.241 0C32.5301 0 31.9277 0 25 0Z" fill="#C2C2C2"/>
<path d="M25 12.0482C17.7711 12.0482 12.0482 17.7711 12.0482 25C12.0482 32.2289 17.7711 37.9518 25 37.9518C32.2289 37.9518 37.9518 32.2289 37.9518 25C37.9518 17.7711 32.2289 12.0482 25 12.0482ZM25 33.4337C20.4819 33.4337 16.5663 29.8193 16.5663 25C16.5663 20.4819 20.1807 16.5663 25 16.5663C29.5181 16.5663 33.4337 20.1807 33.4337 25C33.4337 29.5181 29.5181 33.4337 25 33.4337Z" fill="#C2C2C2"/>
<path d="M38.253 14.759C39.9165 14.759 41.2651 13.4105 41.2651 11.747C41.2651 10.0835 39.9165 8.73494 38.253 8.73494C36.5895 8.73494 35.241 10.0835 35.241 11.747C35.241 13.4105 36.5895 14.759 38.253 14.759Z" fill="#C2C2C2"/>
</svg>
