<svg width="51" height="32" viewBox="0 0 51 32" fill="none" xmlns="http://www.w3.org/2000/svg">
<path d="M25.1178 19.055L2.6408 0.743654C3.42554 0.261575 4.3273 0.00426584 5.24803 0H45.0949C46.0149 0.00426266 46.9158 0.261188 47.6999 0.742881L25.1178 19.055ZM49.0184 1.89543L26.3142 20.3923C25.9906 20.6535 25.5876 20.7961 25.1718 20.7965C24.756 20.7965 24.3529 20.6539 24.0293 20.3927L1.32514 1.89582C0.58459 2.79138 0.176934 3.91554 0.171875 5.07734V26.1496C0.173425 27.4954 0.708597 28.7859 1.66036 29.7377C2.61211 30.6894 3.9022 31.2246 5.24842 31.2265H45.0953C46.4415 31.2246 47.7316 30.6894 48.6834 29.7377C49.6352 28.7859 50.1703 27.4954 50.1719 26.1496V5.07734C50.1668 3.91554 49.7592 2.79095 49.0186 1.89582L49.0184 1.89543Z" fill="#C2C2C2"/>
</svg>
