<svg width="50" height="32" viewBox="0 0 50 32" fill="none" xmlns="http://www.w3.org/2000/svg">
<path d="M27.233 31.8182C10.1499 31.8182 0.405996 19.8744 0 0H8.55715C8.83823 14.5873 15.1468 20.7662 20.1437 22.0402V0H28.2011V12.5808C33.1355 12.0393 38.3198 6.30631 40.0687 0H48.1262C47.4671 3.27063 46.1535 6.36739 44.2673 9.09659C42.3811 11.8258 39.963 14.1287 37.1643 15.8613C40.2883 17.4444 43.0477 19.6852 45.2602 22.4358C47.4728 25.1863 49.0883 28.3842 50 31.8182H41.1305C40.3121 28.8355 38.6486 26.1655 36.3486 24.1428C34.0486 22.1201 31.2144 20.8347 28.2011 20.4477V31.8182H27.233Z" fill="#C2C2C2"/>
</svg>
