<svg width="50" height="50" viewBox="0 0 50 50" fill="none" xmlns="http://www.w3.org/2000/svg">
<path d="M42.6829 7.29167C37.9791 2.60416 31.7073 0 25.0871 0C11.324 0 0.174213 11.1111 0.174213 24.8264C0.174213 29.1667 1.39373 33.5069 3.48432 37.1528L0 50L13.2404 46.5278C16.899 48.4375 20.9059 49.4792 25.0871 49.4792C38.8502 49.4792 50 38.3681 50 24.6528C49.8258 18.2292 47.3867 11.9792 42.6829 7.29167ZM37.108 33.6806C36.5854 35.0694 34.1463 36.4583 32.9268 36.6319C31.8815 36.8056 30.4878 36.8056 29.0941 36.4583C28.223 36.1111 27.0035 35.7639 25.6098 35.0694C19.338 32.4653 15.331 26.2153 14.9826 25.6944C14.6341 25.3472 12.3693 22.3958 12.3693 19.2708C12.3693 16.1458 13.9373 14.7569 14.4599 14.0625C14.9826 13.3681 15.6794 13.3681 16.2021 13.3681C16.5505 13.3681 17.0732 13.3681 17.4216 13.3681C17.77 13.3681 18.2927 13.1944 18.8153 14.4097C19.338 15.625 20.5575 18.75 20.7317 18.9236C20.9059 19.2708 20.9059 19.6181 20.7317 19.9653C20.5575 20.3125 20.3833 20.6597 20.0348 21.0069C19.6864 21.3542 19.338 21.875 19.1638 22.0486C18.8153 22.3958 18.4669 22.7431 18.8153 23.2639C19.1638 23.9583 20.3833 25.8681 22.2997 27.6042C24.7387 29.6875 26.6551 30.3819 27.3519 30.7292C28.0488 31.0764 28.3972 30.9028 28.7456 30.5556C29.0941 30.2083 30.3136 28.8194 30.662 28.125C31.0105 27.4306 31.5331 27.6042 32.0557 27.7778C32.5784 27.9514 35.7143 29.5139 36.2369 29.8611C36.9338 30.2083 37.2822 30.3819 37.4564 30.5556C37.6307 31.0764 37.6307 32.2917 37.108 33.6806Z" fill="#C2C2C2"/>
</svg>
